<?xml version="1.0" encoding="UTF-8" standalone="no"?>
<!-- Created with Inkscape (http://www.inkscape.org/) -->

<svg
   xmlns:dc="http://purl.org/dc/elements/1.1/"
   xmlns:cc="http://creativecommons.org/ns#"
   xmlns:rdf="http://www.w3.org/1999/02/22-rdf-syntax-ns#"
   xmlns:svg="http://www.w3.org/2000/svg"
   xmlns="http://www.w3.org/2000/svg"
   xmlns:xlink="http://www.w3.org/1999/xlink"
   xmlns:sodipodi="http://sodipodi.sourceforge.net/DTD/sodipodi-0.dtd"
   xmlns:inkscape="http://www.inkscape.org/namespaces/inkscape"
   width="256"
   height="256"
   id="svg2"
   version="1.1"
   inkscape:version="0.91 r13725"
   sodipodi:docname="decoration.svg">
  <defs
     id="defs4">
    <linearGradient
       id="linearGradient4499">
      <stop
         style="stop-color:#000000;stop-opacity:0.25882354;"
         offset="0"
         id="stop4501" />
      <stop
         id="stop4101"
         offset="0.25"
         style="stop-color:#000000;stop-opacity:0.13333334;" />
      <stop
         id="stop4503"
         offset="0.5"
         style="stop-color:#000000;stop-opacity:0.05882353;" />
      <stop
         style="stop-color:#000000;stop-opacity:0;"
         offset="0.75"
         id="stop4103" />
      <stop
         style="stop-color:#000000;stop-opacity:0;"
         offset="1"
         id="stop4505" />
    </linearGradient>
    <linearGradient
       id="linearGradient7308">
      <stop
         id="stop7310"
         offset="0"
         style="stop-color:#000000;stop-opacity:0.3489933;" />
      <stop
         style="stop-color:#000000;stop-opacity:0.23529412;"
         offset="0.25"
         id="stop4097" />
      <stop
         style="stop-color:#000000;stop-opacity:0.1254902;"
         offset="0.5"
         id="stop7312" />
      <stop
         id="stop4099"
         offset="0.75"
         style="stop-color:#000000;stop-opacity:0.04313726;" />
      <stop
         id="stop7314"
         offset="1"
         style="stop-color:#000000;stop-opacity:0;" />
    </linearGradient>
    <linearGradient
       inkscape:collect="always"
       xlink:href="#linearGradient7308"
       id="linearGradient4614"
       gradientUnits="userSpaceOnUse"
       gradientTransform="matrix(2.5,0,0,1,-417.0111,0)"
       x1="272.67407"
       y1="238.35013"
       x2="280.67407"
       y2="238.35013" />
    <linearGradient
       inkscape:collect="always"
       xlink:href="#linearGradient7308"
       id="linearGradient4616"
       gradientUnits="userSpaceOnUse"
       gradientTransform="matrix(2.3756731,0,0,1.5,-245.10729,-885.66801)"
       x1="268.30209"
       y1="238.35013"
       x2="276.72076"
       y2="238.35013" />
    <linearGradient
       inkscape:collect="always"
       xlink:href="#linearGradient7308"
       id="linearGradient4618"
       gradientUnits="userSpaceOnUse"
       gradientTransform="matrix(2.5000002,0,0,0.49999997,-412.97652,144.17508)"
       x1="268.30206"
       y1="145.493"
       x2="276.72073"
       y2="145.493" />
    <linearGradient
       inkscape:collect="always"
       xlink:href="#linearGradient7308"
       id="linearGradient4620"
       gradientUnits="userSpaceOnUse"
       gradientTransform="matrix(33.938185,0,0,0.0110495,-9251.1825,-257.80785)"
       x1="268.30206"
       y1="145.493"
       x2="276.72073"
       y2="145.493" />
    <radialGradient
       inkscape:collect="always"
       xlink:href="#linearGradient7308"
       id="radialGradient4622"
       gradientUnits="userSpaceOnUse"
       gradientTransform="matrix(-0.00195071,1.9711631,-1.9750981,-0.00195461,560.53299,40.897621)"
       cx="98.180466"
       cy="233.9969"
       fx="98.180466"
       fy="233.9969"
       r="1.0792809" />
    <linearGradient
       inkscape:collect="always"
       xlink:href="#linearGradient7308"
       id="linearGradient4624"
       gradientUnits="userSpaceOnUse"
       gradientTransform="matrix(2.5,0,0,1.5666666,-1114.7967,-684.37307)"
       x1="264.67407"
       y1="220.26501"
       x2="272.67407"
       y2="220.26501" />
    <radialGradient
       inkscape:collect="always"
       xlink:href="#linearGradient7308"
       id="radialGradient4628"
       gradientUnits="userSpaceOnUse"
       gradientTransform="matrix(-0.00195071,1.9711631,-1.9750981,-0.00195461,560.53299,40.897621)"
       cx="98.19014"
       cy="233.98904"
       fx="98.19014"
       fy="233.98904"
       r="1.0792809" />
    <linearGradient
       inkscape:collect="always"
       xlink:href="#linearGradient7308"
       id="linearGradient4630"
       gradientUnits="userSpaceOnUse"
       gradientTransform="matrix(1.849711,0,0,0.047,-937.47974,-401.14363)"
       x1="261.8522"
       y1="220.26501"
       x2="272.67407"
       y2="220.26501" />
    <linearGradient
       inkscape:collect="always"
       xlink:href="#linearGradient7308"
       id="linearGradient4634"
       gradientUnits="userSpaceOnUse"
       gradientTransform="matrix(25.708704,0,0,3.4278273,-20003.662,-562.60221)"
       x1="754.62976"
       y1="86.442924"
       x2="754.62976"
       y2="92.276398" />
    <linearGradient
       inkscape:collect="always"
       xlink:href="#linearGradient7308"
       id="linearGradient4638"
       gradientUnits="userSpaceOnUse"
       gradientTransform="matrix(2.5,0,0,0.29766665,-1114.7967,-343.35633)"
       x1="264.67407"
       y1="220.26501"
       x2="272.67407"
       y2="220.26501" />
    <radialGradient
       inkscape:collect="always"
       xlink:href="#linearGradient7308"
       id="radialGradient4640"
       gradientUnits="userSpaceOnUse"
       gradientTransform="matrix(-0.00195071,1.9711631,-1.9750981,-0.00195461,560.53299,40.897621)"
       cx="98.19014"
       cy="233.98904"
       fx="98.19014"
       fy="233.98904"
       r="1.0792809" />
    <linearGradient
       inkscape:collect="always"
       xlink:href="#linearGradient7308"
       id="linearGradient4646"
       gradientUnits="userSpaceOnUse"
       gradientTransform="matrix(2.5,0,0,0.63333335,-403.04241,77.572322)"
       x1="264.67407"
       y1="220.26501"
       x2="272.67407"
       y2="220.26501" />
    <radialGradient
       inkscape:collect="always"
       xlink:href="#linearGradient7308"
       id="radialGradient4648"
       gradientUnits="userSpaceOnUse"
       gradientTransform="matrix(-0.00195071,1.9711631,-1.9750981,-0.00195461,560.53299,40.897621)"
       cx="98.19014"
       cy="233.98904"
       fx="98.19014"
       fy="233.98904"
       r="1.0792809" />
    <linearGradient
       inkscape:collect="always"
       xlink:href="#linearGradient7308"
       id="linearGradient4133"
       gradientUnits="userSpaceOnUse"
       gradientTransform="matrix(1.7139136,0,0,7.2932496,-1044.7275,-393.16262)"
       x1="754.62976"
       y1="86.442924"
       x2="754.62976"
       y2="92.276398" />
    <linearGradient
       inkscape:collect="always"
       xlink:href="#linearGradient4499"
       id="linearGradient4464"
       gradientUnits="userSpaceOnUse"
       gradientTransform="matrix(2.5,0,0,1,-417.0111,0)"
       x1="272.67407"
       y1="238.35013"
       x2="280.67407"
       y2="238.35013" />
    <linearGradient
       inkscape:collect="always"
       xlink:href="#linearGradient4499"
       id="linearGradient4466"
       gradientUnits="userSpaceOnUse"
       gradientTransform="matrix(2.3756731,0,0,1.5,-245.10729,-885.66801)"
       x1="268.30209"
       y1="238.35013"
       x2="276.72076"
       y2="238.35013" />
    <linearGradient
       inkscape:collect="always"
       xlink:href="#linearGradient4499"
       id="linearGradient4468"
       gradientUnits="userSpaceOnUse"
       gradientTransform="matrix(2.5000002,0,0,0.49999997,-412.97652,144.17508)"
       x1="268.30206"
       y1="145.493"
       x2="276.72073"
       y2="145.493" />
    <linearGradient
       inkscape:collect="always"
       xlink:href="#linearGradient4499"
       id="linearGradient4470"
       gradientUnits="userSpaceOnUse"
       gradientTransform="matrix(33.938185,0,0,0.0110495,-9251.1825,-257.80785)"
       x1="268.30206"
       y1="145.493"
       x2="276.72073"
       y2="145.493" />
    <radialGradient
       inkscape:collect="always"
       xlink:href="#linearGradient4499"
       id="radialGradient4472"
       gradientUnits="userSpaceOnUse"
       gradientTransform="matrix(-0.00195071,1.9711631,-1.9750981,-0.00195461,560.53299,40.897621)"
       cx="98.181168"
       cy="233.99673"
       fx="98.181168"
       fy="233.99673"
       r="1.0792809" />
    <linearGradient
       inkscape:collect="always"
       xlink:href="#linearGradient4499"
       id="linearGradient4475"
       gradientUnits="userSpaceOnUse"
       gradientTransform="matrix(2.5,0,0,1.5666666,-1114.7967,-684.37307)"
       x1="264.67407"
       y1="220.26501"
       x2="272.67407"
       y2="220.26501" />
    <radialGradient
       inkscape:collect="always"
       xlink:href="#linearGradient4499"
       id="radialGradient4477"
       gradientUnits="userSpaceOnUse"
       gradientTransform="matrix(-0.00195071,1.9711631,-1.9750981,-0.00195461,560.53299,40.897621)"
       cx="98.19014"
       cy="233.98904"
       fx="98.19014"
       fy="233.98904"
       r="1.0792809" />
    <linearGradient
       inkscape:collect="always"
       xlink:href="#linearGradient4499"
       id="linearGradient4479"
       gradientUnits="userSpaceOnUse"
       gradientTransform="matrix(1.849711,0,0,0.047,-937.47974,-401.14363)"
       x1="261.8522"
       y1="220.26501"
       x2="272.67407"
       y2="220.26501" />
    <linearGradient
       inkscape:collect="always"
       xlink:href="#linearGradient4499"
       id="linearGradient4481"
       gradientUnits="userSpaceOnUse"
       gradientTransform="matrix(25.708704,0,0,3.4278273,-20003.662,-563.6026)"
       x1="754.62976"
       y1="86.442924"
       x2="754.62976"
       y2="92.276398" />
    <linearGradient
       inkscape:collect="always"
       xlink:href="#linearGradient4499"
       id="linearGradient4485"
       gradientUnits="userSpaceOnUse"
       gradientTransform="matrix(2.5,0,0,0.31333332,-1114.7967,-346.30715)"
       x1="264.67407"
       y1="220.26501"
       x2="272.67407"
       y2="220.26501" />
    <radialGradient
       inkscape:collect="always"
       xlink:href="#linearGradient4499"
       id="radialGradient4487"
       gradientUnits="userSpaceOnUse"
       gradientTransform="matrix(-0.00195071,1.9711631,-1.9750981,-0.00195461,560.53299,40.897621)"
       cx="98.19014"
       cy="233.98904"
       fx="98.19014"
       fy="233.98904"
       r="1.0792809" />
    <linearGradient
       inkscape:collect="always"
       xlink:href="#linearGradient4499"
       id="linearGradient4196"
       gradientUnits="userSpaceOnUse"
       gradientTransform="matrix(1.7139136,0,0,3.4278273,-690.25868,-563.60216)"
       x1="754.62976"
       y1="86.442924"
       x2="754.62976"
       y2="92.276398" />
    <linearGradient
       inkscape:collect="always"
       xlink:href="#linearGradient4499"
       id="linearGradient4200"
       gradientUnits="userSpaceOnUse"
       gradientTransform="matrix(2.5,0,0,0.31333336,-48.573622,-346.30715)"
       x1="264.67407"
       y1="220.26501"
       x2="272.67407"
       y2="220.26501" />
    <radialGradient
       inkscape:collect="always"
       xlink:href="#linearGradient4499"
       id="radialGradient4209"
       gradientUnits="userSpaceOnUse"
       gradientTransform="matrix(-0.00195071,1.9711631,-1.9750981,-0.00195461,560.53299,40.897621)"
       cx="98.19014"
       cy="233.98904"
       fx="98.19014"
       fy="233.98904"
       r="1.0792809" />
  </defs>
  <sodipodi:namedview
     id="base"
     pagecolor="#ffffff"
     bordercolor="#666666"
     borderopacity="1.0"
     inkscape:pageopacity="0"
     inkscape:pageshadow="2"
     inkscape:zoom="4.1478128"
     inkscape:cx="181.00914"
     inkscape:cy="194.37339"
     inkscape:document-units="px"
     inkscape:current-layer="layer1"
     showgrid="false"
     inkscape:window-width="2560"
     inkscape:window-height="1012"
     inkscape:window-x="0"
     inkscape:window-y="0"
     inkscape:window-maximized="1"
     inkscape:showpageshadow="false"
     showborder="true"
     borderlayer="true">
    <inkscape:grid
       type="xygrid"
       id="grid4481" />
  </sodipodi:namedview>
  <metadata
     id="metadata7">
    <rdf:RDF>
      <cc:Work
         rdf:about="">
        <dc:format>image/svg+xml</dc:format>
        <dc:type
           rdf:resource="http://purl.org/dc/dcmitype/StillImage" />
        <dc:title />
      </cc:Work>
    </rdf:RDF>
  </metadata>
  <g
     inkscape:label="Layer 1"
     inkscape:groupmode="layer"
     id="layer1"
     transform="translate(0,-796.36218)">
    <rect
       style="fill:#dcdcdc;fill-opacity:1;stroke:none"
       id="decoration-inactive-center"
       width="150"
       height="100"
       x="315.99994"
       y="883.36212"
       inkscape:label="#rect7638" />
    <g
       id="decoration-inactive-right"
       transform="translate(211.32589,695.01202)"
       inkscape:label="#g8422">
      <rect
         style="fill:#dcdcdc;fill-opacity:1;stroke:none"
         id="rect4394"
         width="10"
         height="100"
         x="254.67406"
         y="188.35013" />
      <rect
         style="fill:url(#linearGradient4464);fill-opacity:1;stroke:none"
         id="rect4396"
         width="20"
         height="100"
         x="264.67404"
         y="188.35013" />
      <rect
         y="188.35016"
         x="263.6741"
         height="99.999969"
         width="0.99996227"
         id="rect4329"
         style="fill:#bdbdbd;fill-opacity:1;stroke:none" />
    </g>
    <g
       inkscape:label="#g4528"
       transform="translate(-137.14287,594.0714)"
       id="decoration-inactive-bottom">
      <rect
         transform="matrix(0,1,-1,0,0,0)"
         y="-603.14282"
         x="389.29077"
         height="150"
         width="3"
         id="rect4400"
         style="fill:#dcdcdc;fill-opacity:1;stroke:none" />
      <rect
         transform="matrix(0,1,-1,0,0,0)"
         y="-603.14282"
         x="392.29077"
         height="150"
         width="20"
         id="rect4402"
         style="fill:url(#linearGradient4466);fill-opacity:1;stroke:none" />
      <rect
         style="fill:#bdbdbd;fill-opacity:1;stroke:none"
         id="rect4325"
         width="0.99999148"
         height="150.0006"
         x="391.29077"
         y="-603.14288"
         transform="matrix(0,1,-1,0,0,0)" />
    </g>
    <g
       id="decoration-inactive-bottomright"
       transform="matrix(0.99965084,0,0,0.99966383,222.08724,683.46301)"
       inkscape:label="#g8521">
      <path
         sodipodi:end="1.5707963"
         sodipodi:start="0"
         transform="matrix(0.37235997,0,0,0.37235997,145.66666,223.90174)"
         d="m 282.8804,204.36745 a 2.6855733,2.6855733 0 0 1 -2.68558,2.68557 l 0,-2.68557 z"
         sodipodi:ry="2.6855733"
         sodipodi:rx="2.6855733"
         sodipodi:cy="204.36745"
         sodipodi:cx="280.19482"
         id="path4406"
         style="fill:#eff0f1;fill-opacity:1;stroke:none"
         sodipodi:type="arc" />
      <g
         id="g4408"
         transform="matrix(0,0.95058874,-0.07002445,0,264.18946,57.959453)">
        <rect
           style="fill:url(#linearGradient4468);fill-opacity:1;stroke:none"
           id="rect4410"
           width="21.046667"
           height="142.85715"
           x="257.77875"
           y="145.493" />
        <rect
           y="-257.77872"
           x="-145.49706"
           height="3.1570003"
           width="285.71429"
           id="rect4412"
           style="fill:url(#linearGradient4470);fill-opacity:1;stroke:none"
           transform="matrix(0,-1,-1,0,0,0)" />
        <path
           sodipodi:type="arc"
           style="fill:url(#radialGradient4472);fill-opacity:1;stroke:none"
           id="path4414"
           sodipodi:cx="98.174583"
           sodipodi:cy="233.97066"
           sodipodi:rx="2.1585617"
           sodipodi:ry="2.1585617"
           d="m 100.33315,233.97066 a 2.1585617,2.1585617 0 0 1 -2.158567,2.15856 l 0,-2.15856 z"
           transform="matrix(9.7503203,0,0,-132.36327,-699.45491,31114.619)"
           sodipodi:start="0"
           sodipodi:end="1.5707963" />
        <rect
           transform="matrix(0,-1,-1,0,0,0)"
           style="fill:#000000;fill-opacity:0.25882353;stroke:none"
           id="rect4416"
           width="42.857143"
           height="3.1570003"
           x="-188.35419"
           y="-257.77872" />
        <path
           sodipodi:end="1.5707963"
           sodipodi:start="0"
           transform="matrix(0,-14.43609,1.0634106,0,-162.45377,6630.9042)"
           d="m 449.25,392.20593 a 2.96875,2.96875 0 0 1 -2.96875,2.96875 l 0,-2.96875 z"
           sodipodi:ry="2.96875"
           sodipodi:rx="2.96875"
           sodipodi:cy="392.20593"
           sodipodi:cx="446.28125"
           id="path4418"
           style="fill:#dcdcdc;fill-opacity:1;stroke:none"
           sodipodi:type="arc" />
        <rect
           transform="matrix(0,-1,1,0,0,0)"
           style="fill:#dcdcdc;fill-opacity:1;stroke:none"
           id="rect4420"
           width="100"
           height="3.1570003"
           x="-288.34763"
           y="254.62218" />
        <rect
           y="256.72641"
           x="-288.34937"
           height="1.0527586"
           width="100.00174"
           id="rect4331"
           style="fill:#bdbdbd;fill-opacity:1;stroke:none"
           transform="matrix(0,-1,1,0,0,0)" />
        <path
           style="fill:#bdbdbd;fill-opacity:1;stroke:none"
           d="M 475 187 C 475 188.108 474.108 189 473 189 L 473 190 A 3 3 0 0 0 476 187 L 475 187 z "
           transform="matrix(0,-14.285714,1.0523334,0,57.835403,6945.4922)"
           id="path4343" />
      </g>
    </g>
    <g
       inkscape:label="#g4554"
       transform="translate(-137.11159,594.0714)"
       id="decoration-inactive-left">
      <rect
         transform="scale(-1,-1)"
         style="fill:url(#linearGradient4475);fill-opacity:1;stroke:none"
         id="rect4424"
         width="20"
         height="100"
         x="-453.11154"
         y="-389.29117" />
      <rect
         transform="scale(-1,1)"
         style="fill:#dcdcdc;fill-opacity:1;stroke:none"
         id="rect4426"
         width="10"
         height="100"
         x="-453.11154"
         y="289.29074" />
      <rect
         y="289.29074"
         x="-444.11154"
         height="100"
         width="1"
         id="rect4327"
         style="fill:#bdbdbd;fill-opacity:1;stroke:none"
         transform="scale(-1,1)" />
    </g>
    <g
       inkscape:label="#g4560"
       transform="translate(-137.11159,594.0714)"
       id="decoration-inactive-bottomleft">
      <path
         sodipodi:type="arc"
         style="fill:url(#radialGradient4477);fill-opacity:1;stroke:none"
         id="path4430"
         sodipodi:cx="98.174583"
         sodipodi:cy="233.97066"
         sodipodi:rx="2.1585617"
         sodipodi:ry="2.1585617"
         d="m 100.33315,233.97066 a 2.1585617,2.1585617 0 0 1 -2.158567,2.15856 l 0,-2.15856 z"
         transform="matrix(0,9.2654289,-9.2654289,0,2620.95,-517.33886)"
         sodipodi:start="0"
         sodipodi:end="1.5707963" />
      <rect
         y="-392.29117"
         x="-453.11154"
         height="3"
         width="20"
         id="rect4432"
         style="fill:url(#linearGradient4479);fill-opacity:1;stroke:none"
         transform="scale(-1,-1)" />
      <path
         sodipodi:type="arc"
         style="fill:#dcdcdc;fill-opacity:1;stroke:none"
         id="path4434"
         sodipodi:cx="446.28125"
         sodipodi:cy="392.20593"
         sodipodi:rx="2.96875"
         sodipodi:ry="2.96875"
         d="m 449.25,392.20593 a 2.96875,2.96875 0 0 1 -2.96875,2.96875 l 0,-2.96875 z"
         transform="matrix(-1.0105263,0,0,1.0105263,897.09048,-7.0432186)"
         sodipodi:start="0"
         sodipodi:end="1.5707963" />
      <rect
         y="389.29117"
         x="-453.11151"
         height="3"
         width="7"
         id="rect4436"
         style="fill:#dcdcdc;fill-opacity:1;stroke:none"
         transform="scale(-1,1)" />
      <rect
         transform="scale(-1,1)"
         style="fill:#bdbdbd;fill-opacity:1;stroke:none"
         id="rect4333"
         width="7.0000787"
         height="1.0004188"
         x="-453.1116"
         y="391.29077" />
      <path
         style="fill:#bdbdbd;fill-opacity:1;stroke:none"
         d="M 306 187 A 3 3 0 0 0 309 190 L 309 189 C 307.892 189 307 188.108 307 187 L 306 187 z "
         transform="translate(137.11159,202.29078)"
         id="path4348" />
    </g>
    <g
       inkscape:label="#g4576"
       transform="translate(-137.11159,596.0714)"
       id="decoration-inactive-top">
      <rect
         transform="scale(-1,-1)"
         y="-267.29117"
         x="-603.11151"
         height="20"
         width="150"
         id="rect4440"
         style="fill:url(#linearGradient4481);fill-opacity:1;stroke:none" />
      <rect
         transform="matrix(0,-1,-1,0,0,0)"
         style="fill:#dcdcdc;fill-opacity:1;stroke:none"
         id="rect4442"
         width="28"
         height="150"
         x="-285.29074"
         y="-603.11151" />
      <rect
         y="-603.11151"
         x="-287.29074"
         height="150"
         width="2"
         id="rect3417"
         style="fill:#dcdcdc;fill-opacity:1;stroke:none"
         transform="matrix(0,-1,-1,0,0,0)" />
      <rect
         y="-603.11151"
         x="-258.29077"
         height="150"
         width="1.0000085"
         id="rect4319"
         style="fill:#bdbdbd;fill-opacity:1;stroke:none"
         transform="matrix(0,-1,-1,0,0,0)" />
    </g>
    <g
       inkscape:label="#g4584"
       transform="translate(-137.11159,596.0714)"
       id="decoration-inactive-topleft">
      <rect
         y="-287.29077"
         x="-453.11154"
         height="20"
         width="20"
         id="rect4446"
         style="fill:url(#linearGradient4485);fill-opacity:1;stroke:none"
         transform="scale(-1,-1)" />
      <path
         sodipodi:end="1.5707963"
         sodipodi:start="0"
         transform="matrix(0,-9.2654289,-9.2654289,0,2620.95,1176.9208)"
         d="m 100.33315,233.97066 a 2.1585617,2.1585617 0 0 1 -2.158567,2.15856 l 0,-2.15856 z"
         sodipodi:ry="2.1585617"
         sodipodi:rx="2.1585617"
         sodipodi:cy="233.97066"
         sodipodi:cx="98.174583"
         id="path4448"
         style="fill:url(#radialGradient4487);fill-opacity:1;stroke:none"
         sodipodi:type="arc" />
      <path
         sodipodi:nodetypes="cccccc"
         inkscape:connector-curvature="0"
         id="path4450"
         d="m 443.11154,257.29118 0,0.0106 0,27.98942 c 0,0 10.00005,-4.2e-4 10,0 l 0,-28 c 5e-5,-4.2e-4 -10,-2e-5 -10,-2e-5 z"
         style="fill:#dcdcdc;fill-opacity:1;stroke:none" />
      <rect
         y="-453.11154"
         x="-287.29077"
         height="10"
         width="2"
         id="rect4582-9-6-0-9"
         style="fill:#dcdcdc;fill-opacity:1;stroke:none"
         transform="matrix(0,-1,-1,0,0,0)" />
      <rect
         transform="matrix(0,-1,-1,0,0,0)"
         style="fill:#bdbdbd;fill-opacity:1;stroke:none"
         id="rect4321"
         width="2.0000086"
         height="1.0000788"
         x="-287.29077"
         y="-444.1116" />
      <path
         style="fill:#bdbdbd;fill-opacity:1;stroke:none"
         d="m 443.11154,257.29118 0,0.0106 0,27.98942 c 0,0 1,-4.2e-4 1,0 l 0,-28 c 0,-4.2e-4 -1,-2e-5 -1,-2e-5 z"
         id="path4339"
         inkscape:connector-curvature="0"
         sodipodi:nodetypes="cccccc" />
      <path
         style="fill:#bdbdbd;fill-opacity:1;stroke:none"
         d="m 443.11154,257.29118 0,0.0106 0,0.989 c 0,0 10.00005,-4.2e-4 10,0 l 0,-0.99958 c 5e-5,-4.2e-4 -10,-2e-5 -10,-2e-5 z"
         id="path4341"
         inkscape:connector-curvature="0"
         sodipodi:nodetypes="cccccc" />
    </g>
    <g
       inkscape:label="#g4596"
       transform="translate(-137.11159,596.0714)"
       id="decoration-inactive-topright">
      <rect
         y="-287.29077"
         x="613.11151"
         height="20"
         width="20"
         id="rect4456"
         style="fill:url(#linearGradient4200);fill-opacity:1;stroke:none"
         transform="scale(1,-1)" />
      <path
         sodipodi:end="1.5707963"
         sodipodi:start="0"
         transform="matrix(0,-9.2654287,9.2654289,0,-1554.7269,1176.9203)"
         d="m 100.33315,233.97066 a 2.1585617,2.1585617 0 0 1 -2.158567,2.15856 l 0,-2.15856 z"
         sodipodi:ry="2.1585617"
         sodipodi:rx="2.1585617"
         sodipodi:cy="233.97066"
         sodipodi:cx="98.174583"
         id="path4458"
         style="fill:url(#radialGradient4209);fill-opacity:1;stroke:none"
         sodipodi:type="arc" />
      <rect
         style="fill:url(#linearGradient4196);fill-opacity:1;stroke:none"
         id="rect4460"
         width="10"
         height="20"
         x="603.11151"
         y="-267.29077"
         transform="scale(1,-1)" />
      <path
         sodipodi:nodetypes="cccccc"
         inkscape:connector-curvature="0"
         id="path4462"
         d="m 613.11154,257.29118 0,0.0106 0,27.98942 -10,0 0,-28 c 0,0 10.00005,-4.2e-4 10,-2e-5 z"
         style="fill:#dcdcdc;fill-opacity:1;stroke:none" />
      <rect
         y="-613.11157"
         x="-287.29077"
         height="10"
         width="2"
         id="rect4582-9-6-0-5"
         style="fill:#dcdcdc;fill-opacity:1;stroke:none"
         transform="matrix(0,-1,-1,0,0,0)" />
      <rect
         transform="matrix(0,-1,-1,0,0,0)"
         style="fill:#bdbdbd;fill-opacity:1;stroke:none"
         id="rect4323"
         width="1.9999915"
         height="0.99998224"
         x="-287.29077"
         y="-613.11157" />
      <path
         style="fill:#bdbdbd;fill-opacity:1;stroke:none"
         d="m 613.11154,257.29118 0,0.0106 0,27.98942 -0.99995,0 0,-28 c 0,0 1,-4.2e-4 0.99995,-2e-5 z"
         id="path4335"
         inkscape:connector-curvature="0"
         sodipodi:nodetypes="cccccc" />
      <path
         style="fill:#bdbdbd;fill-opacity:1;stroke:none"
         d="m 613.11154,257.29118 0,0.0106 0,0.989 -10,0 0,-0.99958 c 0,0 10.00005,-4.2e-4 10,-2e-5 z"
         id="path4337"
         inkscape:connector-curvature="0"
         sodipodi:nodetypes="cccccc" />
    </g>
    <g
       inkscape:label="#g8422"
       transform="translate(-56.674052,694.01225)"
       id="decoration-right">
      <rect
         y="188.35013"
         x="254.67406"
         height="100"
         width="10"
         id="rect4522"
         style="fill:#cccccc;fill-opacity:1;stroke:none" />
      <rect
         y="188.35013"
         x="264.67404"
         height="100"
         width="20"
         id="rect4524"
         style="fill:url(#linearGradient4614);fill-opacity:1;stroke:none" />
      <rect
         style="fill:#bdbdbd;fill-opacity:1;stroke:none"
         id="rect4287"
         width="1.0000203"
         height="100.0002"
         x="263.67404"
         y="188.34993" />
    </g>
    <g
       id="decoration-bottom"
       transform="translate(-405.14281,593.07163)"
       inkscape:label="#g4528">
      <rect
         style="fill:#cccccc;fill-opacity:1;stroke:none"
         id="rect4530"
         width="3"
         height="150"
         x="389.29077"
         y="-603.14282"
         transform="matrix(0,1,-1,0,0,0)" />
      <rect
         style="fill:url(#linearGradient4616);fill-opacity:1;stroke:none"
         id="rect4534"
         width="20"
         height="150"
         x="392.29077"
         y="-603.14282"
         transform="matrix(0,1,-1,0,0,0)" />
      <rect
         transform="matrix(0,1,-1,0,0,0)"
         y="-603.14282"
         x="391.2912"
         height="150"
         width="0.99986172"
         id="rect4302"
         style="fill:#bdbdbd;fill-opacity:1;stroke:none" />
    </g>
    <g
       inkscape:label="#g8521"
       transform="matrix(0.99965084,0,0,0.99966383,-45.9127,682.46324)"
       id="decoration-bottomright">
      <path
         sodipodi:type="arc"
         style="fill:#eff0f1;fill-opacity:1;stroke:none"
         id="path4538"
         sodipodi:cx="280.19482"
         sodipodi:cy="204.36745"
         sodipodi:rx="2.6855733"
         sodipodi:ry="2.6855733"
         d="m 282.8804,204.36745 a 2.6855733,2.6855733 0 0 1 -2.68558,2.68557 l 0,-2.68557 z"
         transform="matrix(0.37235997,0,0,0.37235997,145.66666,223.90174)"
         sodipodi:start="0"
         sodipodi:end="1.5707963" />
      <g
         transform="matrix(0,0.95058874,-0.07002445,0,264.18946,57.959453)"
         id="g4540">
        <rect
           y="145.493"
           x="257.77875"
           height="142.85715"
           width="21.046667"
           id="rect4544"
           style="fill:url(#linearGradient4618);fill-opacity:1;stroke:none" />
        <rect
           transform="matrix(0,-1,-1,0,0,0)"
           style="fill:url(#linearGradient4620);fill-opacity:1;stroke:none"
           id="rect4546"
           width="285.71429"
           height="3.1570003"
           x="-145.49706"
           y="-257.77872" />
        <path
           sodipodi:end="1.5707963"
           sodipodi:start="0"
           transform="matrix(9.7503203,0,0,-132.36327,-699.45491,31114.619)"
           d="m 100.33315,233.97066 a 2.1585617,2.1585617 0 0 1 -2.158567,2.15856 l 0,-2.15856 z"
           sodipodi:ry="2.1585617"
           sodipodi:rx="2.1585617"
           sodipodi:cy="233.97066"
           sodipodi:cx="98.174583"
           id="path4548"
           style="fill:url(#radialGradient4622);fill-opacity:1;stroke:none"
           sodipodi:type="arc" />
        <rect
           y="-257.77872"
           x="-188.35419"
           height="3.1570003"
           width="42.857143"
           id="rect4088"
           style="fill:#000000;fill-opacity:0.34901961;stroke:none"
           transform="matrix(0,-1,-1,0,0,0)" />
        <path
           sodipodi:type="arc"
           style="fill:#cccccc;fill-opacity:1;stroke:none"
           id="path4550"
           sodipodi:cx="446.28125"
           sodipodi:cy="392.20593"
           sodipodi:rx="2.96875"
           sodipodi:ry="2.96875"
           d="m 449.25,392.20593 a 2.96875,2.96875 0 0 1 -2.96875,2.96875 l 0,-2.96875 z"
           transform="matrix(0,-14.43609,1.0634106,0,-162.45377,6630.9042)"
           sodipodi:start="0"
           sodipodi:end="1.5707963" />
        <rect
           y="254.62218"
           x="-288.34763"
           height="3.1570003"
           width="100"
           id="rect4552"
           style="fill:#cccccc;fill-opacity:1;stroke:none"
           transform="matrix(0,-1,1,0,0,0)" />
        <rect
           transform="matrix(0,-1,1,0,0,0)"
           style="fill:#bdbdbd;fill-opacity:1;stroke:none"
           id="rect4304"
           width="100"
           height="1.0521879"
           x="-288.34763"
           y="256.72699" />
        <path
           style="fill:#bdbdbd;fill-opacity:1;stroke:none"
           d="M 207 186 C 207 187.108 206.108 188 205 188 L 205 189 A 3 3 0 0 0 208 186 L 207 186 z "
           transform="matrix(0,-14.285714,1.0523334,0,58.887495,3116.9216)"
           id="path4308" />
      </g>
    </g>
    <g
       id="decoration-left"
       transform="translate(-405.11153,593.07163)"
       inkscape:label="#g4554">
      <rect
         y="-389.29117"
         x="-453.11154"
         height="100"
         width="20"
         id="rect4558"
         style="fill:url(#linearGradient4624);fill-opacity:1;stroke:none"
         transform="scale(-1,-1)" />
      <rect
         y="289.29074"
         x="-453.11154"
         height="100"
         width="10"
         id="rect4556"
         style="opacity:1;fill:#cccccc;fill-opacity:1;stroke:none"
         transform="scale(-1,1)" />
      <rect
         transform="scale(-1,1)"
         style="opacity:1;fill:#bdbdbd;fill-opacity:1;stroke:none"
         id="rect4293"
         width="1"
         height="100"
         x="-444.11154"
         y="289.29074" />
    </g>
    <g
       id="decoration-bottomleft"
       transform="translate(-405.11153,593.07163)"
       inkscape:label="#g4560">
      <path
         sodipodi:end="1.5707963"
         sodipodi:start="0"
         transform="matrix(0,9.2654289,-9.2654289,0,2620.95,-517.33886)"
         d="m 100.33315,233.97066 a 2.1585617,2.1585617 0 0 1 -2.158567,2.15856 l 0,-2.15856 z"
         sodipodi:ry="2.1585617"
         sodipodi:rx="2.1585617"
         sodipodi:cy="233.97066"
         sodipodi:cx="98.174583"
         id="path4564"
         style="fill:url(#radialGradient4628);fill-opacity:1;stroke:none"
         sodipodi:type="arc" />
      <rect
         transform="scale(-1,-1)"
         style="fill:url(#linearGradient4630);fill-opacity:1;stroke:none"
         id="rect4566"
         width="20"
         height="3"
         x="-453.11154"
         y="-392.29117" />
      <path
         sodipodi:end="1.5707963"
         sodipodi:start="0"
         transform="matrix(-1.0105263,0,0,1.0105263,897.09048,-7.0432186)"
         d="m 449.25,392.20593 a 2.96875,2.96875 0 0 1 -2.96875,2.96875 l 0,-2.96875 z"
         sodipodi:ry="2.96875"
         sodipodi:rx="2.96875"
         sodipodi:cy="392.20593"
         sodipodi:cx="446.28125"
         id="path4568"
         style="fill:#cccccc;fill-opacity:1;stroke:none"
         sodipodi:type="arc" />
      <rect
         transform="scale(-1,1)"
         style="fill:#cccccc;fill-opacity:1;stroke:none"
         id="rect4570"
         width="7"
         height="3"
         x="-453.11151"
         y="389.29117" />
      <path
         style="fill:#bdbdbd;fill-opacity:1;stroke:none"
         d="M 38 186 A 3 3 0 0 0 41 189 L 41 188 C 39.892001 188 39 187.108 39 186 L 38 186 z "
         transform="translate(405.11153,203.29055)"
         id="path4297" />
      <rect
         y="391.29132"
         x="-453.11151"
         height="0.99986172"
         width="7"
         id="rect4306"
         style="fill:#bdbdbd;fill-opacity:1;stroke:none"
         transform="scale(-1,1)" />
    </g>
    <g
       id="decoration-top"
       transform="translate(-405.11153,597.07163)"
       inkscape:label="#g4576">
      <rect
         style="fill:url(#linearGradient4634);fill-opacity:1;stroke:none"
         id="rect4578"
         width="150"
         height="20"
         x="-603.11151"
         y="-266.2908"
         transform="scale(-1,-1)" />
      <rect
         y="-603.11151"
         x="-284.29077"
         height="150"
         width="28"
         id="rect4580"
         style="fill:#cccccc;fill-opacity:1;stroke:none"
         transform="matrix(0,-1,-1,0,0,0)" />
      <rect
         y="-603.11151"
         x="-285.29077"
         height="150"
         width="1"
         id="rect4582-9-6-0"
         style="fill:#cccccc;fill-opacity:1;stroke:none"
         transform="matrix(0,-1,-1,0,0,0)" />
      <rect
         transform="matrix(0,-1,-1,0,0,0)"
         style="fill:#bdbdbd;fill-opacity:1;stroke:none"
         id="rect4313"
         width="0.99977851"
         height="150.00002"
         x="-257.29056"
         y="-603.11151" />
    </g>
    <g
       id="decoration-topleft"
       transform="translate(-405.11153,595.07163)"
       inkscape:label="#g4584">
      <rect
         transform="scale(-1,-1)"
         style="fill:url(#linearGradient4638);fill-opacity:1;stroke:none"
         id="rect4586"
         width="20"
         height="19"
         x="-453.11154"
         y="-287.29077" />
      <path
         sodipodi:type="arc"
         style="fill:url(#radialGradient4640);fill-opacity:1;stroke:none"
         id="path4588"
         sodipodi:cx="98.174583"
         sodipodi:cy="233.97066"
         sodipodi:rx="2.1585617"
         sodipodi:ry="2.1585617"
         d="m 100.33315,233.97066 a 2.1585617,2.1585617 0 0 1 -2.158567,2.15856 l 0,-2.15856 z"
         transform="matrix(0,-9.2654289,-9.2654289,0,2620.95,1177.9204)"
         sodipodi:start="0"
         sodipodi:end="1.5707963" />
      <path
         style="fill:#cccccc;fill-opacity:1;stroke:none"
         d="m 443.11154,258.29076 c -0.003,1e-5 0,0.007 0,0.01 l 0,27.99 10,0 0,-28 c -10e-6,-2.1e-4 -10,0 -10,0 z"
         id="path4592"
         inkscape:connector-curvature="0"
         sodipodi:nodetypes="cccccc" />
      <rect
         y="-453.11154"
         x="-287.29077"
         height="10"
         width="1"
         id="rect4582-9-6-0-1-1"
         style="fill:#cccccc;fill-opacity:1;stroke:none"
         transform="matrix(0,-1,-1,0,0,0)" />
      <path
         sodipodi:nodetypes="cccccc"
         inkscape:connector-curvature="0"
         id="path4291"
         d="m 443.11087,258.29076 c -0.001,1e-5 0,0.007 0,0.01 l 0,27.99 0.99934,0 0,-28 c -10e-6,-2.1e-4 -0.99934,0 -0.99934,0 z"
         style="fill:#bdbdbd;fill-opacity:1;stroke:none" />
      <rect
         transform="matrix(0,-1,-1,0,0,0)"
         style="fill:#bdbdbd;fill-opacity:1;stroke:none"
         id="rect4295"
         width="1"
         height="1"
         x="-287.29077"
         y="-444.11154" />
      <path
         sodipodi:nodetypes="cccccc"
         inkscape:connector-curvature="0"
         id="path4317"
         d="m 443.11154,258.29076 c -0.003,1e-5 0,0.007 0,0.01 l 0,0.98979 10,0 0,-0.99979 c -10e-6,-2.1e-4 -10,0 -10,0 z"
         style="fill:#bdbdbd;fill-opacity:1;stroke:none" />
    </g>
    <g
       id="decoration-topright"
       transform="translate(-405.11153,597.07163)"
       inkscape:label="#g4596">
      <g
         transform="matrix(1,0,0,-0.47,354.46877,377.81531)"
         id="g4598">
        <rect
           y="196.86073"
           x="258.64276"
           height="40.425533"
           width="20"
           id="rect4602"
           style="fill:url(#linearGradient4646);fill-opacity:1;stroke:none" />
        <path
           sodipodi:end="1.5707963"
           sodipodi:start="0"
           transform="matrix(0,19.713678,9.2654289,0,-1909.1957,-1698.0949)"
           d="m 100.33315,233.97066 a 2.1585617,2.1585617 0 0 1 -2.158567,2.15856 l 0,-2.15856 z"
           sodipodi:ry="2.1585617"
           sodipodi:rx="2.1585617"
           sodipodi:cy="233.97066"
           sodipodi:cx="98.174583"
           id="path4604"
           style="fill:url(#radialGradient4648);fill-opacity:1;stroke:none"
           sodipodi:type="arc" />
        <rect
           style="fill:url(#linearGradient4133);fill-opacity:1;stroke:none"
           id="rect4608"
           width="10"
           height="42.553192"
           x="248.64278"
           y="237.28717" />
        <path
           sodipodi:nodetypes="cccccc"
           inkscape:connector-curvature="0"
           id="path4610"
           d="m 258.64277,258.56287 0,-0.0213 0,-59.55319 c 0,0 -10.00001,4.7e-4 -10,0 l 0,59.57446 z"
           style="fill:#cccccc;fill-opacity:1;stroke:none" />
        <rect
           y="-258.64276"
           x="196.86073"
           height="10"
           width="2.1276596"
           id="rect4582-9-6-0-1"
           style="fill:#cccccc;fill-opacity:1;stroke:none"
           transform="matrix(0,1,-1,0,0,0)" />
        <path
           style="fill:#bdbdbd;fill-opacity:1;stroke:none"
           d="m 258.64277,258.56287 0,-0.0213 c 0,-19.85106 0,-39.70213 0,-59.55319 l -1.00001,0 0,59.57446 z"
           id="path4283"
           inkscape:connector-curvature="0"
           sodipodi:nodetypes="cccccc" />
        <rect
           transform="matrix(0,1,-1,0,0,0)"
           style="fill:#bdbdbd;fill-opacity:1;stroke:none"
           id="rect4289"
           width="2.128118"
           height="1.0000012"
           x="196.86073"
           y="-258.64276" />
        <path
           style="fill:#bdbdbd;fill-opacity:1;stroke:none"
           d="m 258.64277,258.56287 0,-0.0213 0,-2.10591 c 0,0 -10.00001,4.7e-4 -10,0 l 0,2.12718 z"
           id="path4315"
           inkscape:connector-curvature="0"
           sodipodi:nodetypes="cccccc" />
      </g>
    </g>
    <g
       id="innerborder-topleft"
       inkscape:label="#g4141"
       transform="translate(-378,671.49999)">
      <rect
         style="fill:#cccccc;fill-opacity:1;stroke:none"
         id="rect4137"
         width="3"
         height="2"
         x="467"
         y="124.86219" />
    </g>
    <g
       id="innerborder-top"
       inkscape:label="#g4145"
       transform="translate(-378,671.49999)">
      <rect
         transform="matrix(0,-1,-1,0,0,0)"
         style="fill:#cccccc;fill-opacity:1;stroke:none"
         id="rect4135"
         width="2"
         height="30.000008"
         x="-126.86219"
         y="-501" />
    </g>
    <g
       id="innerborder-topright"
       inkscape:label="#g4149"
       transform="translate(-378,671.49999)">
      <rect
         style="fill:#cccccc;fill-opacity:1;stroke:none"
         id="rect4139"
         width="3"
         height="2"
         x="502"
         y="124.86219" />
    </g>
    <rect
       style="fill:#cccccc;fill-opacity:1;stroke:none"
       id="innerborder-left"
       width="3"
       height="7"
       x="89"
       y="800.36218" />
    <rect
       style="fill:#cccccc;fill-opacity:1;stroke:none"
       id="innerborder-center"
       width="30"
       height="7"
       x="93"
       y="800.36218" />
    <rect
       style="fill:#cccccc;fill-opacity:1;stroke:none"
       id="innerborder-right"
       width="3"
       height="7"
       x="124"
       y="800.36218" />
    <rect
       style="fill:#cccccc;fill-opacity:1;stroke:none"
       id="innerborder-bottomright"
       width="3"
       height="3"
       x="124"
       y="808.36218" />
    <rect
       style="fill:#cccccc;fill-opacity:1;stroke:none"
       id="innerborder-bottom"
       width="30"
       height="3"
       x="93"
       y="808.36218" />
    <rect
       style="fill:#cccccc;fill-opacity:1;stroke:none"
       id="innerborder-bottomleft"
       width="3"
       height="3"
       x="89"
       y="808.36218" />
    <g
       id="innerborder-inactive-topleft"
       inkscape:label="#g4159"
       transform="translate(-378,671.49999)">
      <rect
         inkscape:label="#innerborder-inactive-topleft"
         y="124.86219"
         x="507"
         height="2"
         width="3"
         id="oasdisofja_"
         style="fill:#dcdcdc;fill-opacity:1;stroke:none" />
    </g>
    <g
       id="innerborder-inactive-top"
       inkscape:label="#g4163"
       transform="translate(-378,671.49999)">
      <rect
         inkscape:label="#innerborder-inactive-top"
         y="-541"
         x="-126.86219"
         height="30.000008"
         width="2"
         id="werwqe"
         style="fill:#dcdcdc;fill-opacity:1;stroke:none"
         transform="matrix(0,-1,-1,0,0,0)" />
    </g>
    <g
       id="innerborder-inactive-topright"
       inkscape:label="#g4167"
       transform="translate(-378,671.49999)">
      <rect
         inkscape:label="#innerborder-inactive-topright"
         y="124.86219"
         x="542"
         height="2"
         width="3"
         id="asdfasdfasd"
         style="fill:#dcdcdc;fill-opacity:1;stroke:none" />
    </g>
    <rect
       style="fill:#dcdcdc;fill-opacity:1;stroke:none"
       id="innerborder-inactive-left"
       width="3"
       height="7"
       x="129"
       y="800.36218" />
    <rect
       style="fill:#dcdcdc;fill-opacity:1;stroke:none"
       id="innerborder-inactive-right"
       width="3"
       height="7"
       x="164"
       y="800.36218" />
    <rect
       style="fill:#dcdcdc;fill-opacity:1;stroke:none"
       id="innerborder-inactive-bottomright"
       width="3"
       height="3"
       x="164"
       y="808.36218" />
    <rect
       style="fill:#dcdcdc;fill-opacity:1;stroke:none"
       id="innerborder-inactive-bottomleft"
       width="3"
       height="3"
       x="129"
       y="808.36218" />
    <rect
       style="fill:#dcdcdc;fill-opacity:1;stroke:none"
       id="innerborder-inactive-bottom"
       width="30"
       height="3"
       x="133"
       y="808.36218" />
    <rect
       style="fill:#dcdcdc;fill-opacity:1;stroke:none"
       id="innerborder-inactive-center"
       width="30"
       height="7"
       x="133"
       y="800.36218" />
    <g
       id="decoration-center"
       inkscape:label="#g4525"
       transform="translate(-70.031,445.00021)">
      <rect
         style="fill:#cccccc;fill-opacity:1;stroke:none"
         id="rect7638"
         width="150"
         height="100"
         x="118.03128"
         y="437.36218"
         inkscape:label="#rect7638" />
      <rect
         y="-268.03101"
         x="-463.35217"
         height="150"
         width="1"
         id="rect4582-9-6"
         style="fill:#cccccc;fill-opacity:1;stroke:none"
         transform="matrix(0,-1,-1,0,0,0)" />
    </g>
    <rect
       style="fill:#008000;fill-opacity:1;stroke:none"
       id="hint-tile-center"
       width="20"
       height="20"
       x="0"
       y="796.36218"
       inkscape:label="#rect3336" />
    <rect
       style="fill:#008000;fill-opacity:1;stroke:none"
       id="hint-stretch-borders"
       width="20"
       height="20"
       x="0"
       y="1032.3622"
       inkscape:label="#rect3336" />
  </g>
</svg>
